# xmcd CD database file
#
# Track frame offsets:
#	150
#	10504
#	24605
#	42231
#	57517
#	69595
#	84821
#	101343
#	113719
#
# Disc length: 1945 seconds
#
# Revision: 0
# Processed by: cddbd v1.5.2PL0 Copyright (c) Steve Scherf et al.
# Submitted via: CDex 1.70beta2
#
DISCID=63079709
DTITLE=The Sons Of Katie Elder - Urban Hillbillies
DYEAR=2013
DGENRE=Country
TTITLE0=Act Naturally
TTITLE1=I Saw The Light
TTITLE2=The One In Control
TTITLE3=Tennessee
TTITLE4=The Sons Of Katie Elder
TTITLE5=Tennessee Waltz
TTITLE6=Proud Of The Country
TTITLE7=Arkansas Traveller
TTITLE8=Wreck Of The Old 97
EXTD=YEAR: 2013
EXTT0=
EXTT1=
EXTT2=
EXTT3=
EXTT4=
EXTT5=
EXTT6=
EXTT7=
EXTT8=
PLAYORDER=
